<?xml version="1.0" encoding="UTF-8"?>
<svg width="14px" height="14px" viewBox="0 0 14 14" version="1.1" xmlns="http://www.w3.org/2000/svg" xmlns:xlink="http://www.w3.org/1999/xlink">
    <!-- Generator: Sketch 46.2 (44496) - http://www.bohemiancoding.com/sketch -->
    <title>Fill 1815</title>
    <desc>Created with Sketch.</desc>
    <defs></defs>
    <g id="Menu-Bar" stroke="none" stroke-width="1" fill="none" fill-rule="evenodd">
        <g id="Artboard-Copy-8" transform="translate(-569.000000, -369.000000)" fill="#2B96EE">
            <path d="M576,369 C574.126,369 572.349,369.759 571.051,371.052 L569,369 L569,375 L575,375 L572.465,372.466 C573.392,371.542 574.662,371 576,371 C578.756,371 581,373.243 581,376 C581,378.757 578.756,381 576,381 C574.22,381 572.561,380.042 571.668,378.499 L569.937,379.501 C571.186,381.659 573.509,383 576,383 C579.859,383 582.999,379.859 582.999,376 C582.999,372.141 579.859,369 576,369" id="Fill-1815"></path>
        </g>
    </g>
</svg>