<?xml version="1.0" encoding="UTF-8"?>
<svg width="15px" height="16px" viewBox="0 0 15 16" version="1.1" xmlns="http://www.w3.org/2000/svg" xmlns:xlink="http://www.w3.org/1999/xlink">
    <!-- Generator: Sketch 46.2 (44496) - http://www.bohemiancoding.com/sketch -->
    <title>Combined Shape</title>
    <desc>Created with Sketch.</desc>
    <defs></defs>
    <g id="Menu-Bar" stroke="none" stroke-width="1" fill="none" fill-rule="evenodd">
        <g id="Artboard-Copy-8" transform="translate(-569.000000, -368.000000)" fill="currentColor">
            <path d="M583.499,371 L580,371 L580,370 C580,368 578.999,368 578,368 C577,368 577,368 575,368 C572.999,368 572.999,369 572.999,370 C572.999,370.375 572.999,370.469 572.999,370.439 L572.999,371 L569.5,371 C569.225,371 569,371.226 569,371.5 L569,372.5 C569,372.775 569.225,373 569.5,373 L583.499,373 C583.774,373 584,372.775 584,372.5 L584,371.5 C584,371.226 583.774,371 583.499,371 Z M575,371 L575,370 L578,370 L578,371 L575,371 Z M580,374.086 L579.982,374 L581.999,374 L581.999,383.5 C581.999,383.775 581.774,384 581.5,384 L571.499,384 C571.225,384 571,383.775 571,383.5 L571,374 L573.017,374 L572.999,374.086 L572.999,381.5 C572.999,381.775 573.225,382 573.5,382 C573.774,382 574,381.775 574,381.5 L574,374.086 L573.982,374 L576.017,374 L575.999,374.086 L575.999,381.5 C575.999,381.775 576.225,382 576.5,382 C576.774,382 577,381.775 577,381.5 L577,374.086 L576.982,374 L579.017,374 L578.999,374.086 L578.999,381.5 C578.999,381.775 579.225,382 579.5,382 C579.774,382 580,381.775 580,381.5 L580,374.086 Z" id="Combined-Shape"></path>
        </g>
    </g>
</svg>
